<?xml version="1.0" standalone="no"?>
<!DOCTYPE svg PUBLIC "-//W3C//DTD SVG 1.1//EN" "http://www.w3.org/Graphics/SVG/1.1/DTD/svg11.dtd" >
<svg xmlns="http://www.w3.org/2000/svg" xmlns:xlink="http://www.w3.org/1999/xlink" version="1.1">
<metadata>
Created by FontForge 20170731 at Wed Aug 31 23:50:50 2016
 By Aleksey,,,
Copyright (c) 2015, Anonymous
</metadata>
<defs>
<font id="RimWordFont" horiz-adv-x="910" >
  <font-face 
    font-family="RimWordFont"
    font-weight="400"
    font-stretch="normal"
    units-per-em="1024"
    panose-1="2 0 5 3 0 0 0 0 0 0"
    ascent="819"
    descent="-205"
    x-height="730"
    cap-height="728"
    bbox="-87 -203.759 1303 1022"
    underline-thickness="51"
    underline-position="-352"
    unicode-range="U+0020-0451"
  />
<missing-glyph horiz-adv-x="374" 
d="M34 0v682h272v-682h-272zM68 34h204v614h-204v-614z" />
    <glyph glyph-name=".notdef" horiz-adv-x="374" 
d="M34 0v682h272v-682h-272zM68 34h204v614h-204v-614z" />
    <glyph glyph-name=".null" horiz-adv-x="0" 
 />
    <glyph glyph-name="nonmarkingreturn" horiz-adv-x="341" 
 />
    <glyph glyph-name="space" unicode=" " horiz-adv-x="424" 
 />
    <glyph glyph-name="exclam" unicode="!" horiz-adv-x="298" 
d="M181 -110q-23 -12 -67.5 -1.5t-78.5 40.5q-16 14 -25 42.5t-10 50.5v22v8h187v-148q1 -10 -6 -14zM0 130v600h187v-600h-187z" />
    <glyph glyph-name="quotedbl" unicode="&#x22;" horiz-adv-x="527" 
d="M369 518h-116l-30 212h187zM144 518h-116l-30 212h187z" />
    <glyph glyph-name="numbersign" unicode="#" horiz-adv-x="786" 
d="M679 380h-85v-141h86v-187h-86v-80h-187v80h-141v-66q1 -10 -6 -14q-23 -12 -67.5 -1t-78.5 41q-17 15 -27 48q-33 10 -48 27q-30 34 -41 78.5t2 67.5q1 3 4.5 4.5t6.5 1.5h2h66v141h-80v187h80v85h187v-85h141v85h187v-85h85v-187zM407 239v141h-141v-141h141z" />
    <glyph glyph-name="dollar" unicode="$" horiz-adv-x="892" 
d="M523 542h-75v-141h1q20 -2 41.5 -6t56.5 -17t63.5 -32t54.5 -54t37 -79q8 -32 8 -70q0 -47 -12 -86t-30.5 -64.5t-44.5 -45.5t-50 -31t-51 -18.5t-43 -10t-31 -3.5v-69h-188v69h-117q-59 0 -101 42t-42 101v45h260v141q-20 2 -41.5 5.5t-56.5 16.5t-63.5 32t-54 54
t-36.5 80q-8 33 -8 71q0 45 12 83t30 63.5t43.5 45.5t49 31.5t50.5 19.5t43.5 10.5t31.5 4.5v69h188v-69h113q62 1 114 -45q34 -30 35 -113v-1v-29h-149h-38zM194 471q0 -34 20 -49.5t46 -19.5v138q-66 -13 -66 -69zM516 142q0 33 -21 49t-47 20v-138q26 3 47 18.5t21 50.5z
" />
    <glyph glyph-name="quotesingle" unicode="'" horiz-adv-x="305" 
d="M144 518h-116l-30 212h187z" />
    <glyph glyph-name="parenleft" unicode="(" horiz-adv-x="405" 
d="M94 -116q-4 6 -10.5 19t-22.5 55.5t-28.5 89t-22.5 117t-10 142.5q0 70 9.5 139.5t23.5 118.5t27.5 88t23.5 58l10 19h187q-4 -8 -10 -23.5t-22.5 -62.5t-28.5 -94.5t-22.5 -114.5t-10.5 -128q0 -64 10 -131t23.5 -117t27.5 -91t23 -63l10 -21h-187z" />
    <glyph glyph-name="parenright" unicode=")" horiz-adv-x="405" 
d="M187 -116h-187q4 8 10 22.5t22.5 60.5t28.5 93t22.5 115t10.5 132q0 61 -10 127t-23.5 116.5t-27.5 92.5t-23 65l-10 22h187q4 -7 10.5 -20t22.5 -56.5t28.5 -89.5t22.5 -116.5t10 -140.5q0 -72 -9.5 -142t-23.5 -118.5t-27.5 -87t-23.5 -57.5z" />
    <glyph glyph-name="asterisk" unicode="*" horiz-adv-x="620" 
d="M455 426q19 0 33 -14t14 -33.5t-14 -33.5t-33 -14q-13 0 -24 6l-48 -68l-1 -85q18 -2 30.5 -15.5t12.5 -31.5q0 -20 -14 -33.5t-33.5 -13.5t-33 13.5t-13.5 33.5q0 5 1 10l-81 25l-79 -24q1 -5 1 -9q0 -20 -14 -33.5t-33 -13.5t-33 13.5t-14 33.5q0 18 12 31.5t30 15.5
l-1 83l-47 67q-12 -7 -25 -7q-19 0 -33 14t-14 33.5t14 33t33 13.5q30 0 42 -26l80 27l50 66q-15 14 -15 35q0 19 13.5 33t33 14t33.5 -14t14 -33q0 -21 -15 -35l49 -66l79 -27q12 29 43 29z" />
    <glyph glyph-name="plus" unicode="+" horiz-adv-x="550" 
d="M423 221h-118v-99q1 -10 -6 -13q-23 -13 -67.5 -2t-78.5 41q-24 21 -32 76q-55 8 -76 32q-30 34 -41 78.5t2 67.5q1 3 4.5 4.5t6.5 1.5h2h99v118h187v-118h118v-187z" />
    <glyph glyph-name="comma" unicode="," horiz-adv-x="370" 
d="M80 -182h-116l36 234h187z" />
    <glyph glyph-name="hyphen" unicode="-" horiz-adv-x="550" 
d="M6 402q1 3 4.5 4.5t6.5 1.5h2h404v-187h-264q-9 0 -23.5 0.5t-45.5 9.5t-45 25q-30 34 -41 78.5t2 67.5z" />
    <glyph glyph-name="period" unicode="." horiz-adv-x="298" 
d="M181 -110q-23 -12 -67.5 -1.5t-78.5 40.5q-16 14 -25 42.5t-10 50.5v22v8h187v-148q1 -10 -6 -14z" />
    <glyph glyph-name="slash" unicode="/" horiz-adv-x="750" 
d="M630 730l-426 -846h-204l424 846h206z" />
    <glyph glyph-name="zero" unicode="0" horiz-adv-x="820" 
d="M436 730q6 0 16 -0.5t38.5 -6t54.5 -15t57.5 -29t54 -45.5t38 -68.5t15.5 -94.5v-328q0 -52 -15 -94.5t-39 -68.5t-53 -45.5t-58.5 -29t-53.5 -15t-39 -5.5l-16 -1h-162q-6 0 -15.5 0.5t-38 6t-54.5 15t-57.5 29t-54.5 45.5t-38.5 68.5t-15.5 94.5v328q0 41 9.5 76
t25 59.5t36.5 44.5t43.5 32.5t45 22t43.5 14t36.5 7t25.5 3.5h9h162zM517 143v328q0 19 -9 33.5t-21 21t-24.5 10.5t-21.5 5h-9h-154q-3 0 -9 -0.5t-20.5 -4.5t-25.5 -10.5t-20 -21t-9 -33.5v-328q0 -19 8.5 -33.5t21 -21t25 -10.5t20.5 -5h9h154q4 0 9.5 0.5t20 4.5
t26 10.5t20.5 21t9 33.5z" />
    <glyph glyph-name="one" unicode="1" horiz-adv-x="436" 
d="M334 -97q1 -10 -7 -13q-23 -13 -67 -2t-78 41q-17 14 -25.5 42.5t-9.5 49.5l-1 22v497h-146l146 190h188v-827z" />
    <glyph glyph-name="two" unicode="2" horiz-adv-x="804" 
d="M188 71h523v-187h-711v365v3q0 60 45 111q14 16 42.5 25t50.5 10l21 1h274q3 0 8.5 0.5t20.5 4t26 10t20 21.5t9 35t-8.5 34.5t-21 21t-25 10.5t-21.5 5h-8h-433v189h437q6 0 15.5 -0.5t38 -6t54.5 -15t57.5 -29t54.5 -45.5t38.5 -68.5t15.5 -94.5q0 -53 -15 -96
t-39.5 -69.5t-53.5 -46t-58.5 -28.5t-53.5 -14t-39 -5l-15 -1h-249v-140z" />
    <glyph glyph-name="three" unicode="3" horiz-adv-x="804" 
d="M708 471q0 -99 -55 -163q55 -64 55 -166q0 -51 -15 -93.5t-39 -68.5t-53 -45.5t-58 -29t-53.5 -15t-39.5 -5.5l-15 -1h-435v188h431q4 0 9.5 0.5t20 4.5t25.5 11t20 21t9 34t-8 34.5t-21 21.5t-23.5 10t-20.5 4h-7h-435v1v187h431q4 0 9.5 0.5t20 4.5t25.5 11t20 21t9 34
t-8.5 35t-21 21.5t-25 10t-20.5 3.5h-9h-431v188h435q6 0 16 -0.5t38 -5.5t54 -14t57.5 -28.5t54 -45.5t38 -69t15.5 -96z" />
    <glyph glyph-name="four" unicode="4" horiz-adv-x="808" 
d="M711 -97q1 -11 -6 -14q-23 -12 -67.5 -1.5t-78.5 40.5q-16 14 -25 43t-10 50v22v171h-365q-9 0 -23.5 1t-45.5 10t-45 26q-43 50 -45 112v368h188v-323h336v323h187v-828z" />
    <glyph glyph-name="five" unicode="5" horiz-adv-x="800" 
d="M436 403q6 0 16 -0.5t38.5 -6t54.5 -14t57.5 -28t54 -46t38 -69.5t15.5 -96q0 -52 -15 -94.5t-39 -68.5t-53.5 -45.5t-58.5 -29t-53 -15t-39 -5.5l-16 -1h-436v189h432q4 0 9.5 0.5t20 4.5t26 10.5t20.5 21t9 33.5q0 21 -9 36t-21 21.5t-24.5 10t-21.5 3.5h-9h-432v58
v271v63v124h551q9 0 24 -0.5t45.5 -9.5t44.5 -25q30 -34 41 -78.5t-2 -67.5q-1 -3 -4.5 -4.5t-5.5 -1.5h-3h-505v-140h250z" />
    <glyph glyph-name="six" unicode="6" horiz-adv-x="808" 
d="M436 403q6 0 16 -0.5t38.5 -6t54.5 -14t57.5 -28t54 -46t38 -69.5t15.5 -96q0 -52 -15 -94.5t-39 -68.5t-53 -45.5t-58.5 -29t-53.5 -15t-39 -5.5l-16 -1h-162q-6 0 -15.5 0.5t-38 6t-54.5 15t-57.5 29t-54.5 45.5t-38.5 68.5t-15.5 94.5v327v1v1q0 50 13.5 90.5
t34.5 66.5t49.5 46t53.5 29.5t53 16t42 8t25 1.5h280q9 0 24 -0.5t45.5 -9.5t44.5 -25q30 -34 41 -78.5t-2 -67.5q-1 -3 -4.5 -4.5t-5.5 -1.5h-3l-413 -1h-9t-20.5 -3.5t-25.5 -10t-20 -21.5t-9 -35q0 -21 10.5 -36t26.5 -21.5t26 -9t19 -2.5h160zM432 73q4 0 9.5 0.5
t20 4.5t26 10.5t20.5 21t9 33.5q0 21 -9 36t-21 21.5t-24.5 10t-21.5 3.5h-9h-154q-3 1 -9 0.5t-20.5 -4t-25.5 -10t-20 -21.5t-9 -36q0 -19 8.5 -33.5t21 -21t25 -10.5t20.5 -5h9h154z" />
    <glyph glyph-name="seven" unicode="7" horiz-adv-x="804" 
d="M707 730l-424 -846h-224l339 659h-398v187h707z" />
    <glyph glyph-name="eight" unicode="8" horiz-adv-x="808" 
d="M710 472q0 -100 -56 -164q56 -65 56 -166q0 -52 -15 -94t-39 -68.5t-53 -46t-58.5 -28.5t-53.5 -14.5t-39 -5.5l-16 -1h-162q-6 0 -15.5 0.5t-38 6t-54.5 14.5t-57.5 29t-54.5 46t-38.5 68t-15.5 94q0 101 56 166q-56 64 -56 164q0 41 9.5 76.5t25 60.5t36.5 45t43.5 32
t45 21.5t43.5 13.5t36.5 6.5t25.5 2.5h9h162q6 0 16 -0.5t38.5 -5.5t54.5 -14t57.5 -28.5t54 -45.5t38 -68.5t15.5 -95.5zM278 543h-9t-20.5 -3.5t-25.5 -10t-20 -21.5t-9 -36q0 -19 8.5 -33.5t21 -21t25 -10.5t20.5 -4l9 -1h154q4 0 9.5 0.5t20 4.5t26 10.5t20.5 21t9 33.5
q0 21 -9 36t-21 21.5t-24.5 10t-21.5 3.5h-9h-154zM432 72q4 0 9.5 0.5t20 4.5t26 10.5t20.5 21t9 33.5q0 21 -9 35.5t-21 21t-24.5 10t-21.5 3.5h-9h-154q-3 1 -9 0.5t-20.5 -4t-25.5 -10t-20 -21t-9 -35.5q0 -19 8.5 -33.5t21 -21t25 -10.5t20.5 -5h9h154z" />
    <glyph glyph-name="nine" unicode="9" horiz-adv-x="816" 
d="M274 211q-6 0 -15.5 0.5t-38 6t-54.5 14t-57.5 28t-54.5 46t-38.5 69.5t-15.5 96q0 41 9.5 76t25 59.5t36.5 44.5t43.5 32.5t45 22t43.5 14t36.5 7t25.5 3.5h9h162q6 0 16 -0.5t38.5 -6t54 -15t57.5 -29t54.5 -45.5t38 -68.5t15.5 -94.5v-327v-1v-1q0 -50 -13.5 -90.5
t-34 -66.5t-49.5 -46t-54 -29.5t-53 -16t-42 -8t-25 -1.5h-280q-9 0 -23.5 0.5t-45.5 9.5t-45 25q-30 34 -40.5 78.5t1.5 67.5q1 3 4.5 4.5t6.5 1.5h3l412 1h9.5t20 3.5t25.5 10t20.5 21.5t9.5 35q-1 21 -11 36t-26 21.5t-26.5 9t-19.5 2.5h-160zM278 541q-3 0 -9 -0.5
t-20.5 -4.5t-25.5 -10.5t-20 -21t-9 -33.5q0 -21 8.5 -36t21 -21.5t25 -10t20.5 -3.5h9h154q4 -1 9.5 -0.5t20 4t26 10t20.5 21.5t9 36q0 19 -9 33.5t-21 21t-24.5 10.5t-21.5 5h-9h-154z" />
    <glyph glyph-name="colon" unicode=":" horiz-adv-x="370" 
d="M181 -109q-23 -13 -67.5 -2t-78.5 41q-16 14 -25 42.5t-10 49.5v22v8h187v-148q1 -10 -6 -13zM181 403q-23 -13 -67.5 -2t-78.5 41q-16 14 -25 42.5t-10 49.5v22v8h187v-148q1 -10 -6 -13z" />
    <glyph glyph-name="semicolon" unicode=";" horiz-adv-x="370" 
d="M80 -182h-116l36 234h187zM181 403q-23 -13 -67.5 -2t-78.5 41q-16 14 -25 42.5t-10 49.5v22v8h187v-148q1 -10 -6 -13z" />
    <glyph glyph-name="less" unicode="&#x3c;" horiz-adv-x="458" 
d="M217 315l114 -205h-216l-115 205l115 205h216z" />
    <glyph glyph-name="equal" unicode="=" horiz-adv-x="546" 
d="M6 259q1 3 4.5 4.5t6.5 1.5h3h403v-187h-264q-9 0 -23.5 0.5t-45.5 9.5t-45 25q-30 34 -40.5 78.5t1.5 67.5zM417 365q-1 -3 -4.5 -4.5t-6.5 -1.5h-2h-404v187h264q9 0 23.5 -1t45.5 -9.5t45 -24.5q30 -34 41 -78.5t-2 -67.5z" />
    <glyph glyph-name="greater" unicode="&#x3e;" horiz-adv-x="458" 
d="M114 315l-114 205h216l115 -205l-115 -205h-216z" />
    <glyph glyph-name="question" unicode="?" horiz-adv-x="808" 
d="M443 -110q-23 -12 -67.5 -1.5t-78.5 40.5q-16 14 -25 42.5t-10 50.5v22v8h187v-148q1 -10 -6 -14zM710 472q0 -46 -12 -85t-30.5 -64.5t-44 -45.5t-49 -31t-50.5 -18.5t-43.5 -10t-31.5 -3.5v-84h-187v112q0 10 0.5 24.5t9.5 45t25 44.5q29 26 64.5 37.5t63.5 6.5l7 1
h9.5t20 3.5t25.5 10t20 21.5t9 36v0q0 21 -8.5 36t-21 21.5t-24.5 10t-21 3.5h-9h-47h-81h-26h-8.5t-20 -3.5t-26 -10t-20.5 -21.5t-9 -36v0h-193q0 53 15 95.5t39 69t53.5 46t58.5 28t53 14t39 5.5l15 1h30h81h51q6 0 16 -0.5t38 -6t54 -14t57.5 -28t54 -46t38.5 -69
t16 -95.5z" />
    <glyph glyph-name="A" unicode="A" horiz-adv-x="840" 
d="M677 729v-843h-187v266h-303v-266h-33q-64 0 -109 45t-45 108v117q0 48 30 101l228 389q2 3 5 8t12.5 17.5t19.5 23t24 20t27 11.5q17 4 35 4h1zM293 336h197v207h-75z" />
    <glyph glyph-name="B" unicode="B" horiz-adv-x="879" 
d="M643 311q70 -65 70 -168q0 -49 -15 -90t-39 -67t-53 -46t-58 -30.5t-53 -16.5t-39 -8l-15 -1h-253h-188v541l188 109v-139h249q4 0 9.5 1t20 6t25.5 13t20 25.5t9 40t-8.5 40t-21 25.5t-25 13t-20.5 6l-9 1h-437v164h441q6 0 16 -1t38 -7.5t53.5 -16t57 -28.5t54 -43.5
t38 -64t15.5 -86.5q0 -106 -70 -172zM437 54q4 0 9.5 1t20 6t25.5 13t20 25.5t9 40.5q0 25 -9.5 43t-24 26.5t-25 12t-20.5 5.5h-1h-253v-173h249z" />
    <glyph glyph-name="C" unicode="C" 
d="M781 420h-203q-31 55 -85.5 87.5t-119.5 32.5q-96 0 -164.5 -68t-68.5 -165t68.5 -165t164.5 -68q62 0 114.5 29.5t84.5 80.5h206q-40 -132 -151.5 -216t-253.5 -84q-115 0 -212.5 56.5t-154 154t-56.5 212.5t56.5 212.5t154 154t212.5 56.5q145 0 258 -87t150 -223z" />
    <glyph glyph-name="D" unicode="D" horiz-adv-x="824" 
d="M321 730q8 -1 22 -3t54.5 -13t77.5 -27.5t82 -49.5t77.5 -75t55 -108t22.5 -145q0 -110 -40.5 -194t-98 -125.5t-115 -68t-97.5 -31.5l-40 -6h-321v514l190 108v-433h106q4 1 12.5 2.5t31.5 8t44 16t47 28.5t44.5 42.5t31 59.5t12.5 79q0 42 -12.5 77.5t-32 58.5
t-43.5 41.5t-47.5 28t-43.5 16t-32 8.5l-12 1h-296v190h321z" />
    <glyph glyph-name="E" unicode="E" horiz-adv-x="768" 
d="M588 543h-400v-142h247v-188h-247v-142h400v-187h-433q-27 -2 -60 9.5t-60 35.5q-16 14 -24.5 42.5t-9.5 49.5l-1 22v687h177h11h400v-187z" />
    <glyph glyph-name="F" unicode="F" horiz-adv-x="716" 
d="M553 695q27 -35 37 -79t-1 -67q-2 -3 -5 -5t-5 -1h-3h-389v-140h248v-188h-248v-312q2 -10 -6 -13q-23 -13 -67 -2t-79 41q-16 14 -24.5 42.5t-9.5 49.5l-1 22v500v187v0h187h261q8 0 21.5 -1t42 -9.5t41.5 -24.5z" />
    <glyph glyph-name="G" unicode="G" horiz-adv-x="899" 
d="M416 540q-5 0 -13 -1.5t-31 -8t-44 -16t-47 -28t-44.5 -41.5t-31 -58.5t-12.5 -77.5q0 -43 12 -79t32 -59.5t43.5 -42t47.5 -28.5t43.5 -16.5t32.5 -8.5l12 -1h106v173l190 108v-471h-321q-8 1 -22.5 3t-55 13t-77.5 27.5t-82 50t-77.5 76t-54.5 109t-22 146.5
q0 62 13.5 116.5t36 93.5t52 71.5t61.5 54t64.5 38t62 25t52 14t35.5 7.5l14 1h321v-190h-296z" />
    <glyph glyph-name="H" unicode="H" horiz-adv-x="904" 
d="M678 683q16 -14 24.5 -42.5t9.5 -49.5l1 -21v-684h-186v330h-341v-310q1 -11 -6 -14q-23 -12 -67 -1.5t-78 40.5q-16 14 -25 42.5t-9 49.5l-1 21v684h186v-320h340v301q-1 10 7 13q23 12 67 1.5t78 -40.5z" />
    <glyph glyph-name="I" unicode="I" horiz-adv-x="376" 
d="M181 -110q-23 -13 -67 -2t-79 41q-16 14 -24.5 42.5t-9.5 49.5l-1 22v687h187v-827q2 -10 -6 -13z" />
    <glyph glyph-name="J" unicode="J" horiz-adv-x="605" 
d="M479 730v-187h-129v-659h-16h-185q-62 0 -114 45q-16 14 -24.5 42.5t-9.5 49.5l-1 22v28h163v472h-124v187h440z" />
    <glyph glyph-name="K" unicode="K" horiz-adv-x="800" 
d="M664 730l-236 -422l236 -424h-216l-183 329h-78v-310q2 -10 -6 -13q-23 -12 -67 -1.5t-79 40.5q-16 14 -24.5 42.5t-9.5 49.5l-1 22v687h188v-329h76l184 329h216z" />
    <glyph glyph-name="L" unicode="L" horiz-adv-x="715" 
d="M188 71h400v-187h-433q-27 -2 -60 9.5t-60 35.5q-16 14 -24.5 42.5t-9.5 49.5l-1 22v687h188v-659z" />
    <glyph glyph-name="M" unicode="M" horiz-adv-x="1020" 
d="M414 349l421 409v-874h-186v426l-235 -228l-228 224v-403v-1q0 -10 -6 -12q-13 -6 -32 -6q-61 0 -113 44q-34 32 -35 113v1v716z" />
    <glyph glyph-name="N" unicode="N" horiz-adv-x="776" 
d="M397 729h187v-576v-268l-397 391v-372q1 -10 -6 -13q-23 -13 -67.5 -2t-78.5 41q-16 14 -24.5 42.5t-9.5 49.5l-1 22v685v0v0l397 -391v391z" />
    <glyph glyph-name="O" unicode="O" horiz-adv-x="993" 
d="M686 468q27 0 46 -19.5t19 -46.5t-19 -46.5t-46 -19.5q-18 0 -33 9l-67 -96l-2 -118q25 -2 42.5 -21t17.5 -45q0 -27 -19.5 -46t-46.5 -19t-46 19t-19 46q0 7 1 15l-112 35l-110 -34q1 -6 1 -13q0 -27 -19 -46t-46.5 -19t-46.5 19t-19 46q0 26 17 44.5t42 21.5l-2 115
l-66 94q-16 -10 -34 -10q-27 0 -46.5 19t-19.5 46.5t19.5 46.5t46.5 19q19 0 35 -10t24 -26l111 38l69 92q-21 19 -21 48q0 27 19 46.5t46 19.5t46.5 -19.5t19.5 -46.5q0 -29 -21 -48l69 -92l110 -38q7 18 23.5 29t36.5 11zM402.5 796q99.5 0 190 -38.5t156 -104
t104.5 -156.5t39 -190.5t-39 -190t-104.5 -156t-156 -104t-190 -38.5t-190 38.5t-156 104t-104.5 156t-39 190.5t39 190.5t104.5 156t156 104t190 38.5zM767 307q0 99 -48.5 183t-132.5 133t-183 49t-183 -49t-133 -133t-49 -183t49 -183t133 -132.5t183 -48.5t183 48.5
t132.5 132.5t48.5 183zM767 307q0 -99 -49 -183t-132.5 -132.5t-182.5 -48.5t-183 49t-132.5 132.5t-48.5 182.5t48.5 183t132.5 132.5t183 48.5t182.5 -48.5t132.5 -132.5t49 -183zM768 307q0 99 -49 183t-133 133t-183 49t-183.5 -49t-133 -133t-48.5 -183t48.5 -183
t133 -133t183.5 -49t183 49t133 133t49 183zM892 307q0 -99 -39 -189.5t-104.5 -156t-156 -104.5t-190 -39t-190 39t-156 104.5t-104 156t-38.5 189.5t38.5 189.5t104 156t156 104.5t190 39t190 -39t156 -104t104.5 -156t39 -190zM892 307q0 100 -38.5 190.5t-104 156
t-156.5 104.5t-190.5 39t-190 -39t-156.5 -104.5t-104.5 -156t-38.5 -190.5t38.5 -190.5t104.5 -156t156.5 -104.5t190 -39t190.5 39t156.5 104.5t104 156t38.5 190.5z" />
    <glyph glyph-name="P" unicode="P" horiz-adv-x="892" 
d="M440 730q6 0 15.5 -1.5t37.5 -8.5t54 -18t57 -33t53.5 -51t38 -74t15.5 -100q0 -45 -9.5 -83.5t-25 -66t-36 -51t-42.5 -38t-44.5 -26t-43 -17.5t-36 -9.5t-25.5 -4.5l-9 -1h-253v-244q1 -10 -6 -13q-23 -13 -67 -2t-79 41q-16 14 -24.5 42.5t-9.5 49.5l-1 22v686h183v1
h257zM436 342q3 0 9 1t20 6.5t25 15t20 29.5t9 46.5t-8.5 46.5t-20.5 29.5t-24.5 15.5t-20.5 7l-9 1h-249v-198h249z" />
    <glyph glyph-name="Q" unicode="Q" 
d="M798 308q0 -86 -33 -163t-91 -135l74 -126h-220l-14 24q-68 -23 -138 -23q-116 0 -213 56.5t-154 154t-57 212t57 212t154 154t212 56.5t212 -56.5t154 -154t57 -211.5zM376 74q18 0 40 4l-40 70h168q64 67 64 160q0 96 -68 164.5t-165 68.5t-165 -68.5t-68 -165t68 -165
t166 -68.5z" />
    <glyph glyph-name="R" unicode="R" horiz-adv-x="896" 
d="M558 184l230 -387h-223l-206 351h-172v-245q0 -11 -6 -13q-23 -12 -67 -1.5t-79 40.5q-16 14 -24.5 42.5t-9.5 49.5l-1 22v687h436q6 0 16 -1.5t38.5 -8.5t54.5 -18t57.5 -33t54 -50.5t38 -74t15.5 -99.5q0 -183 -152 -261zM432 343q4 0 9.5 1t20 6.5t26 15t20.5 29.5
t9 46.5t-9 46.5t-21 29.5t-24.5 15t-21.5 6.5l-9 1h-244v-197h244z" />
    <glyph glyph-name="S" unicode="S" horiz-adv-x="892" 
d="M675 685q34 -30 35 -113v-1v-29h-149h-38h-245q-3 0 -9 -0.5t-20.5 -4.5t-25.5 -10.5t-20 -21t-9 -34t7 -33.5t19 -21.5t22.5 -10.5t21.5 -5h14h171q20 -2 41.5 -6t56.5 -17t63.5 -32t54.5 -54t37 -79q8 -32 8 -70q0 -53 -15 -96t-39.5 -69t-53.5 -45.5t-58 -28.5
t-53.5 -14t-39.5 -6h-15h-293q-59 0 -101 42t-42 101v45h432q3 -1 9 -0.5t20.5 4t25.5 10t20 21.5t9 35q0 22 -10 37.5t-26.5 22t-26.5 8.5t-19 3h-2h-161q-12 0 -27 2t-44 8t-56 19t-55 32.5t-49.5 52.5t-31.5 74q-8 33 -8 71q0 52 15 94t39.5 68t53.5 46t58 29t53.5 14.5
t39.5 6.5h15h287q62 1 114 -45z" />
    <glyph glyph-name="T" unicode="T" horiz-adv-x="832" 
d="M673 695q25 -34 34 -78.5t-1 -67.5q-2 -3 -4.5 -4.5t-4.5 -1.5h-3h-245v-641q1 -10 -6 -13q-23 -11 -67.5 -1t-78.5 38q-16 13 -25 40t-10 47v20v510h-262v187h577q8 0 20 -0.5t38 -9.5t38 -25z" />
    <glyph glyph-name="U" unicode="U" horiz-adv-x="894" 
d="M357 -115q-73 0 -139 29q-64 27 -114 77q-49 50 -76 115q-28 67 -28 140v484h193v-484q0 -70 48 -119t116 -49t116 49t48 119v484h193v-484q0 -73 -28 -140q-27 -65 -76 -115t-114 -77q-66 -29 -139 -29z" />
    <glyph glyph-name="V" unicode="V" horiz-adv-x="930" 
d="M603 730h210l-436 -870l-435 870h210l220 -445z" />
    <glyph glyph-name="W" unicode="W" horiz-adv-x="1430" 
d="M1093 729h210l-437 -871l-245 470l-245 -470l-435 871h210l221 -445l248 478l244 -476z" />
    <glyph glyph-name="X" unicode="X" horiz-adv-x="750" 
d="M630 730l-213 -422l213 -424h-204l-111 220l-111 -220h-204l212 424l-212 422h206l109 -218l109 218h206z" />
    <glyph glyph-name="Y" unicode="Y" horiz-adv-x="832" 
d="M521 730h193v-156q0 -73 -28 -140q-27 -64 -76 -114q-50 -50 -114 -78q-20 -8 -41 -15v-324q1 -10 -7 -14q-24 -12 -69 -1t-80 40q-17 15 -26 43.5t-10 49.5l-1 22v183q-23 7 -44 16q-65 28 -114 78t-76 114q-28 67 -28 140v156h193v-156q0 -69 48 -118t116 -49t116 49
t48 118v156z" />
    <glyph glyph-name="Z" unicode="Z" horiz-adv-x="830" 
d="M648 730l-330 -658h330v-188h-648h-2l341 658h-339v188h648v0z" />
    <glyph glyph-name="backslash" unicode="\" horiz-adv-x="750" 
d="M0 730l426 -846h204l-424 846h-206z" />
    <glyph glyph-name="a" unicode="a" horiz-adv-x="800" 
d="M490 152h-303v-247q1 -10 -6 -14q-23 -12 -67 -1t-79 41q-16 14 -24.5 42t-9.5 50l-1 21v372l187 105v-185h197l-121 207l-263 -1v187l295 1q19 0 36 -4q21 -4 43 -24t33 -38l12 -18l228 -389q30 -54 30 -101v-270h-187v266z" />
    <glyph glyph-name="b" unicode="b" horiz-adv-x="879" 
d="M643 311q70 -65 70 -168q0 -49 -15 -90t-39 -67t-53 -46t-58 -30.5t-53 -16.5t-39 -8l-15 -1h-253h-188v541l188 109v-139h249q4 0 9.5 1t20 6t25.5 13t20 25.5t9 40t-8.5 40t-21 25.5t-25 13t-20.5 6l-9 1h-437v164h441q6 0 16 -1t38 -7.5t53.5 -16t57 -28.5t54 -43.5
t38 -64t15.5 -86.5q0 -106 -70 -172zM437 54q4 0 9.5 1t20 6t25.5 13t20 25.5t9 40.5q0 25 -9.5 43t-24 26.5t-25 12t-20.5 5.5h-1h-253v-173h249z" />
    <glyph glyph-name="c" unicode="c" 
d="M781 420h-203q-31 55 -85.5 87.5t-119.5 32.5q-96 0 -164.5 -68t-68.5 -165t68.5 -165t164.5 -68q62 0 114.5 29.5t84.5 80.5h206q-40 -132 -151.5 -216t-253.5 -84q-115 0 -212.5 56.5t-154 154t-56.5 212.5t56.5 212.5t154 154t212.5 56.5q145 0 258 -87t150 -223z" />
    <glyph glyph-name="d" unicode="d" horiz-adv-x="824" 
d="M321 730q8 -1 22 -3t54.5 -13t77.5 -27.5t82 -49.5t77.5 -75t55 -108t22.5 -145q0 -110 -40.5 -194t-98 -125.5t-115 -68t-97.5 -31.5l-40 -6h-321v514l190 108v-433h106q4 1 12.5 2.5t31.5 8t44 16t47 28.5t44.5 42.5t31 59.5t12.5 79q0 42 -12.5 77.5t-32 58.5
t-43.5 41.5t-47.5 28t-43.5 16t-32 8.5l-12 1h-296v190h321z" />
    <glyph glyph-name="e" unicode="e" horiz-adv-x="768" 
d="M588 543h-400v-142h247v-188h-247v-142h400v-187h-433q-27 -2 -60 9.5t-60 35.5q-16 14 -24.5 42.5t-9.5 49.5l-1 22v687h177h11h400v-187z" />
    <glyph glyph-name="f" unicode="f" horiz-adv-x="716" 
d="M553 695q27 -35 37 -79t-1 -67q-2 -3 -5 -5t-5 -1h-3h-389v-140h248v-188h-248v-312q2 -10 -6 -13q-23 -13 -67 -2t-79 41q-16 14 -24.5 42.5t-9.5 49.5l-1 22v500v187v0h187h261q8 0 21.5 -1t42 -9.5t41.5 -24.5z" />
    <glyph glyph-name="g" unicode="g" horiz-adv-x="899" 
d="M416 540q-5 0 -13 -1.5t-31 -8t-44 -16t-47 -28t-44.5 -41.5t-31 -58.5t-12.5 -77.5q0 -43 12 -79t32 -59.5t43.5 -42t47.5 -28.5t43.5 -16.5t32.5 -8.5l12 -1h106v173l190 108v-471h-321q-8 1 -22.5 3t-55 13t-77.5 27.5t-82 50t-77.5 76t-54.5 109t-22 146.5
q0 62 13.5 116.5t36 93.5t52 71.5t61.5 54t64.5 38t62 25t52 14t35.5 7.5l14 1h321v-190h-296z" />
    <glyph glyph-name="h" unicode="h" horiz-adv-x="904" 
d="M678 683q16 -14 24.5 -42.5t9.5 -49.5l1 -21v-684h-186v330h-341v-310q1 -11 -6 -14q-23 -12 -67 -1.5t-78 40.5q-16 14 -25 42.5t-9 49.5l-1 21v684h186v-320h340v301q-1 10 7 13q23 12 67 1.5t78 -40.5z" />
    <glyph glyph-name="i" unicode="i" horiz-adv-x="376" 
d="M181 -110q-23 -13 -67 -2t-79 41q-16 14 -24.5 42.5t-9.5 49.5l-1 22v687h187v-827q2 -10 -6 -13z" />
    <glyph glyph-name="j" unicode="j" horiz-adv-x="605" 
d="M479 730v-187h-129v-659h-16h-185q-62 0 -114 45q-16 14 -24.5 42.5t-9.5 49.5l-1 22v28h163v472h-124v187h440z" />
    <glyph glyph-name="k" unicode="k" horiz-adv-x="800" 
d="M664 730l-236 -422l236 -424h-216l-183 329h-78v-310q2 -10 -6 -13q-23 -12 -67 -1.5t-79 40.5q-16 14 -24.5 42.5t-9.5 49.5l-1 22v687h188v-329h76l184 329h216z" />
    <glyph glyph-name="l" unicode="l" horiz-adv-x="715" 
d="M188 71h400v-187h-433q-27 -2 -60 9.5t-60 35.5q-16 14 -24.5 42.5t-9.5 49.5l-1 22v687h188v-659z" />
    <glyph glyph-name="m" unicode="m" horiz-adv-x="1020" 
d="M414 349l421 409v-874h-186v426l-235 -228l-228 224v-403v-1q0 -10 -6 -12q-13 -6 -32 -6q-61 0 -113 44q-34 32 -35 113v1v716z" />
    <glyph glyph-name="n" unicode="n" horiz-adv-x="776" 
d="M397 729h187v-576v-268l-397 391v-372q1 -10 -6 -13q-23 -13 -67.5 -2t-78.5 41q-16 14 -24.5 42.5t-9.5 49.5l-1 22v685v0v0l397 -391v391z" />
    <glyph glyph-name="o" unicode="o" 
d="M374 730q115 0 212 -56.5t154 -154t57 -212.5t-57 -212t-154 -154t-212 -57t-212.5 57t-154 154t-56.5 212t56.5 212.5t154 154t212.5 56.5zM608 307q0 97 -68.5 166t-166 69t-166 -69t-68.5 -166t68.5 -166t166 -69t166 69t68.5 166z" />
    <glyph glyph-name="p" unicode="p" horiz-adv-x="892" 
d="M440 730q6 0 15.5 -1.5t37.5 -8.5t54 -18t57 -33t53.5 -51t38 -74t15.5 -100q0 -45 -9.5 -83.5t-25 -66t-36 -51t-42.5 -38t-44.5 -26t-43 -17.5t-36 -9.5t-25.5 -4.5l-9 -1h-253v-244q1 -10 -6 -13q-23 -13 -67 -2t-79 41q-16 14 -24.5 42.5t-9.5 49.5l-1 22v686h183v1
h257zM436 342q3 0 9 1t20 6.5t25 15t20 29.5t9 46.5t-8.5 46.5t-20.5 29.5t-24.5 15.5t-20.5 7l-9 1h-249v-198h249z" />
    <glyph glyph-name="q" unicode="q" 
d="M798 308q0 -86 -33 -163t-91 -135l74 -126h-220l-14 24q-68 -23 -138 -23q-116 0 -213 56.5t-154 154t-57 212t57 212t154 154t212 56.5t212 -56.5t154 -154t57 -211.5zM376 74q18 0 40 4l-40 70h168q64 67 64 160q0 96 -68 164.5t-165 68.5t-165 -68.5t-68 -165t68 -165
t166 -68.5z" />
    <glyph glyph-name="r" unicode="r" horiz-adv-x="896" 
d="M558 184l176 -297h-223l-152 261h-172v-245q2 -10 -6 -13q-23 -12 -67 -1.5t-79 40.5q-16 14 -24.5 42.5t-9.5 49.5l-1 22v687h436q6 0 16 -1.5t38.5 -8.5t54.5 -18t57.5 -33t54 -50.5t38 -74t15.5 -99.5q0 -183 -152 -261zM432 343q4 0 9.5 1t20 6.5t26 15t20.5 29.5
t9 46.5t-9 46.5t-21 29.5t-24.5 15t-21.5 6.5l-9 1h-244v-197h244z" />
    <glyph glyph-name="s" unicode="s" horiz-adv-x="892" 
d="M675 685q34 -30 35 -113v-1v-29h-149h-38h-245q-3 0 -9 -0.5t-20.5 -4.5t-25.5 -10.5t-20 -21t-9 -34t7 -33.5t19 -21.5t22.5 -10.5t21.5 -5h14h171q20 -2 41.5 -6t56.5 -17t63.5 -32t54.5 -54t37 -79q8 -32 8 -70q0 -53 -15 -96t-39.5 -69t-53.5 -45.5t-58 -28.5
t-53.5 -14t-39.5 -6h-15h-293q-59 0 -101 42t-42 101v45h432q3 -1 9 -0.5t20.5 4t25.5 10t20 21.5t9 35q0 22 -10 37.5t-26.5 22t-26.5 8.5t-19 3h-2h-161q-12 0 -27 2t-44 8t-56 19t-55 32.5t-49.5 52.5t-31.5 74q-8 33 -8 71q0 52 15 94t39.5 68t53.5 46t58 29t53.5 14.5
t39.5 6.5h15h287q62 1 114 -45z" />
    <glyph glyph-name="t" unicode="t" horiz-adv-x="832" 
d="M673 695q25 -34 34 -78.5t-1 -67.5q-2 -3 -4.5 -4.5t-4.5 -1.5h-3h-245v-641q1 -10 -6 -13q-23 -11 -67.5 -1t-78.5 38q-16 13 -25 40t-10 47v20v510h-262v187h577q8 0 20 -0.5t38 -9.5t38 -25z" />
    <glyph glyph-name="u" unicode="u" horiz-adv-x="894" 
d="M357 -115q-73 0 -139 29q-64 27 -114 77q-49 50 -76 115q-28 67 -28 140v484h193v-484q0 -70 48 -119t116 -49t116 49t48 119v484h193v-484q0 -73 -28 -140q-27 -65 -76 -115t-114 -77q-66 -29 -139 -29z" />
    <glyph glyph-name="v" unicode="v" horiz-adv-x="930" 
d="M603 730h210l-436 -870l-435 870h210l220 -445z" />
    <glyph glyph-name="w" unicode="w" horiz-adv-x="1430" 
d="M1093 729h210l-437 -871l-245 470l-245 -470l-435 871h210l221 -445l248 478l244 -476z" />
    <glyph glyph-name="x" unicode="x" horiz-adv-x="750" 
d="M630 730l-213 -422l213 -424h-204l-111 220l-111 -220h-204l212 424l-212 422h206l109 -218l109 218h206z" />
    <glyph glyph-name="y" unicode="y" horiz-adv-x="832" 
d="M521 730h193v-156q0 -73 -28 -140q-27 -64 -76 -114q-50 -50 -114 -78q-20 -8 -41 -15v-324q1 -10 -7 -14q-24 -12 -69 -1t-80 40q-17 15 -26 43.5t-10 49.5l-1 22v183q-23 7 -44 16q-65 28 -114 78t-76 114q-28 67 -28 140v156h193v-156q0 -69 48 -118t116 -49t116 49
t48 118v156z" />
    <glyph glyph-name="z" unicode="z" horiz-adv-x="830" 
d="M648 730l-330 -658h330v-188h-648h-2l341 658h-339v188h648v0z" />
    <glyph glyph-name="Adieresis" unicode="&#xc4;" horiz-adv-x="840" 
d="M677 729v-843h-187v266h-303v-266h-33q-64 0 -109 45t-45 108v117q0 48 30 101l228 389q2 3 5 8t12.5 17.5t19.5 23t24 20t27 11.5q17 4 35 4h1zM293 336h197v207h-75zM93 898.5q0 31.5 22 54t53.5 22.5t54 -22.5t22.5 -54t-22.5 -53.5t-54 -22t-53.5 22t-22 53.5z
M406 898.5q0 31.5 22 54t54 22.5t54 -22.5t22 -54t-22 -53.5t-54 -22t-54 22t-22 53.5z" />
    <glyph glyph-name="Aring" unicode="&#xc5;" horiz-adv-x="840" 
d="M677 729v-843h-187v266h-303v-266h-33q-64 0 -109 45t-45 108v117q0 48 30 101l228 389q2 3 5 8t12.5 17.5t19.5 23t24 20t27 11.5q17 4 35 4h1zM293 336h197v207h-75zM326 1022q51 0 87 -36t36 -87t-36 -87t-87 -36t-87 36t-36 87t36 87t87 36zM394 899q0 28 -20 48.5
t-48 20.5t-48 -20.5t-20 -48.5t20 -48.5t48 -20.5t48 20.5t20 48.5z" />
    <glyph glyph-name="Odieresis" unicode="&#xd6;" 
d="M147 898.5q0 31.5 22.5 53.5t54 22t53.5 -22t22 -53.5t-22 -53.5t-53.5 -22t-54 22t-22.5 53.5zM460 898.5q0 31.5 22 53.5t53.5 22t54 -22t22.5 -53.5t-22.5 -53.5t-54 -22t-53.5 22t-22 53.5zM372 730q115 0 212.5 -56.5t154 -154t56.5 -212.5t-56.5 -212t-154 -154
t-212.5 -57t-212.5 57t-154 154t-56.5 212t56.5 212.5t154 154t212.5 56.5zM606 307q0 97 -68.5 166t-165.5 69t-166 -69t-69 -166t69 -166t166 -69t165.5 69t68.5 166z" />
    <glyph glyph-name="adieresis" unicode="&#xe4;" horiz-adv-x="800" 
d="M490 152h-303v-247q1 -10 -6 -14q-23 -12 -67 -1t-79 41q-16 14 -24.5 42t-9.5 50l-1 21v372l187 105v-185h197l-121 207l-263 -1v187l295 1q19 0 36 -4q21 -4 43 -24t33 -38l12 -18l228 -389q30 -54 30 -101v-270h-187v266zM93 898.5q0 31.5 22 54t53.5 22.5t54 -22.5
t22.5 -54t-22.5 -53.5t-54 -22t-53.5 22t-22 53.5zM406 898.5q0 31.5 22 54t54 22.5t54 -22.5t22 -54t-22 -53.5t-54 -22t-54 22t-22 53.5z" />
    <glyph glyph-name="aring" unicode="&#xe5;" horiz-adv-x="800" 
d="M490 152h-303v-247q1 -10 -6 -14q-23 -12 -67 -1t-79 41q-16 14 -24.5 42t-9.5 50l-1 21v372l187 105v-185h197l-121 207l-263 -1v187l295 1q19 0 36 -4q21 -4 43 -24t33 -38l12 -18l228 -389q30 -54 30 -101v-270h-187v266zM326 1022q51 0 87 -36t36 -87t-36 -87
t-87 -36t-87 36t-36 87t36 87t87 36zM394 899q0 28 -20 48.5t-48 20.5t-48 -20.5t-20 -48.5t20 -48.5t48 -20.5t48 20.5t20 48.5z" />
    <glyph glyph-name="odieresis" unicode="&#xf6;" 
d="M149 898.5q0 31.5 22.5 53.5t54 22t53.5 -22t22 -53.5t-22 -53.5t-53.5 -22t-54 22t-22.5 53.5zM462 898.5q0 31.5 22 53.5t53.5 22t54 -22t22.5 -53.5t-22.5 -53.5t-54 -22t-53.5 22t-22 53.5zM374 730q115 0 212.5 -56.5t154 -154t56.5 -212.5t-56.5 -212t-154 -154
t-212.5 -57t-212.5 57t-154 154t-56.5 212t56.5 212.5t154 154t212.5 56.5zM608 307q0 97 -68.5 166t-165.5 69t-166 -69t-69 -166t69 -166t166 -69t165.5 69t68.5 166z" />
    <glyph glyph-name="uni0401" unicode="&#x401;" horiz-adv-x="778" 
d="M472 916q-61 0 -113 -45q-34 -30 -36 -113v-1v-29h149h39v189zM247 916q-61 0 -113 -45q-34 -30 -36 -113v-1v-29h149h39v189zM588 498h-400v-120h247v-188h-247v-119h400v-187h-433q-33 0 -60 10q-33 11 -60 35q-16 14 -24.5 42.5t-9.5 49.5l-1 22v642h588v-187z" />
    <glyph glyph-name="uni0410" unicode="&#x410;" horiz-adv-x="966" 
d="M492 150h-304v-247v-2q0 -9 -7 -12q-13 -6 -32 -6q-62 0 -114 45q-34 32 -35 114v1v373l188 105v-176h190l-115 198h-263v187l296 1h1q18 0 35 -4q21 -4 43 -24t33 -38l12 -19l444 -763h-216z" />
    <glyph glyph-name="uni0411" unicode="&#x411;" horiz-adv-x="885" 
d="M187 395h250q5 -1 9 -1h15q15 -2 39 -8t61 -20.5t66 -34.5q86 -81 86 -188q0 -49 -15 -90t-39 -67t-53 -46t-58 -30.5t-53 -16.5q-31 -7 -39 -8h-15l-253 -1h-188v846h520h20q8 0 38 -10q27 -9 38 -25q26 -36 34 -79q9 -47 -1 -67q-2 -4 -5 -5q-3 0 -4 -1h-3h-450v-148z
M437 54q4 0 9.5 1t20 6t25.5 13t20 25.5t9 41.5t-9.5 42t-23.5 27q-20 11 -26 12q-24 5 -274 5v-173h249z" />
    <glyph glyph-name="uni0412" unicode="&#x412;" horiz-adv-x="859" 
d="M643 311q70 -65 70 -168q0 -49 -15 -90t-39 -67t-53 -46t-58 -30.5t-53 -16.5t-39 -8l-15 -1h-253h-188v541l188 109v-139h249q4 0 9.5 1t20 6t25.5 13t20 25.5t9 40t-8.5 40t-21 25.5t-25 13t-20.5 6l-9 1h-437v164h441q6 0 16 -1t38 -7.5t53.5 -16t57 -28.5t54 -43.5
t38 -64t15.5 -86.5q0 -106 -70 -172zM437 54q4 0 9.5 1t20 6t25.5 13t20 25.5t9 40.5q0 25 -9.5 43t-24 26.5t-25 12t-20.5 5.5h-1h-253v-173h249z" />
    <glyph glyph-name="uni0413" unicode="&#x413;" horiz-adv-x="832" 
d="M616 695q25 -33 34 -79q9 -48 -1 -67q-2 -4 -5 -5q-3 0 -4 -1h-3h-450v-641q0 -10 -6 -13q-23 -11 -67.5 -1t-78.5 38q-16 13 -25 40q-10 30 -10 47v20v510v187h520q10 -1 20 0q8 0 38 -10q26 -8 38 -25z" />
    <glyph glyph-name="uni0414" unicode="&#x414;" horiz-adv-x="876" 
d="M321 730q8 -1 22 -3t54.5 -13t77.5 -27.5t82 -49.5t77.5 -75t55 -108t22.5 -145q0 -110 -40.5 -194t-98 -125.5t-115 -68t-97.5 -31.5l-40 -6h-321v514l190 108v-433h106q4 1 12.5 2.5t31.5 8t44 16t47 28.5t44.5 42.5t31 59.5t12.5 79q0 42 -12.5 77.5t-32 58.5
t-43.5 41.5t-47.5 28t-43.5 16t-32 8.5l-12 1h-296v190h321z" />
    <glyph glyph-name="uni0415" unicode="&#x415;" horiz-adv-x="778" 
d="M588 543h-400v-142h247v-188h-247v-142h400v-187h-433q-27 -2 -60 9.5t-60 35.5q-16 14 -24.5 42.5t-9.5 49.5l-1 22v687h177h11h400v-187z" />
    <glyph glyph-name="uni0416" unicode="&#x416;" horiz-adv-x="1338" 
d="M477 212l-1 -169l1 -22q1 -21 9.5 -49.5t24.5 -42.5q35 -30 79 -41q42 -10 67 2q6 3 6 13l-1 309h78l183 -329h216l-236 424l236 422h-216l-184 -329h-76v330h-187v-330h-76l-184 329h-216l236 -422l-236 -424h216l183 329h78z" />
    <glyph glyph-name="uni0417" unicode="&#x417;" horiz-adv-x="858" 
d="M708 471q0 -99 -55 -163q55 -64 55 -166q0 -51 -15 -93.5t-39 -68.5t-53 -45.5t-58 -29t-53 -15.5q-19 -4 -40 -5l-15 -1h-435v188h431q4 0 9.5 0.5t20 4.5t25.5 11t20 21t9 34t-8 34.5t-21 21.5t-24 10q-14 4 -20 4h-7h-202v1l87 187h111q1 0 9 1q6 0 20.5 4t25.5 11
t20 21t9 34t-8.5 35t-21 21.5t-25 10t-20.5 3.5h-9h-431v188h435q6 0 16 -0.5t38 -5.5t54 -14t57.5 -28.5t54 -45.5t38 -69t15.5 -96z" />
    <glyph glyph-name="uni0418" unicode="&#x418;" horiz-adv-x="793" 
d="M397 -116h187v576v268l-397 -391v372q1 10 -6 13q-23 13 -67.5 2t-78.5 -41q-16 -14 -24.5 -42.5t-9.5 -49.5l-1 -22v-685l397 391v-391z" />
    <glyph glyph-name="uni0419" unicode="&#x419;" horiz-adv-x="793" 
d="M417 916q-61 0 -113 -45q-34 -30 -36 -113v-1v-29h149h39v189zM397 -116h187v576v268l-397 -391v372q0 10 -6 13q-23 13 -67.5 2t-78.5 -41q-16 -14 -24.5 -42.5t-9.5 -49.5l-1 -22v-685l397 391v-391z" />
    <glyph glyph-name="uni041A" unicode="&#x41a;" horiz-adv-x="831" 
d="M664 730l-236 -422l236 -424h-216l-183 329h-78v-310q2 -10 -6 -13q-23 -12 -67 -1.5t-79 40.5q-16 14 -24.5 42.5t-9.5 49.5l-1 22v687h188v-329h76l184 329h216z" />
    <glyph glyph-name="uni041B" unicode="&#x41b;" horiz-adv-x="1014" 
d="M653 -116h210l-436 844l-435 -844h210l220 419z" />
    <glyph glyph-name="uni041C" unicode="&#x41c;" horiz-adv-x="1025" 
d="M414 349l421 409v-874h-186v426l-235 -228l-228 224v-403v-1q0 -10 -6 -12q-13 -6 -32 -6q-61 0 -113 44q-34 32 -35 113v1v716z" />
    <glyph glyph-name="uni041D" unicode="&#x41d;" horiz-adv-x="903" 
d="M678 683q16 -14 25 -42.5t9 -49.5l1 -21v-684h-186v263h-341v-243q2 -11 -6 -14q-23 -12 -67 -1.5t-78 40.5q-16 14 -24.5 42.5t-9.5 49.5l-1 21v684h186v-386h341v367q-1 10 6 13q23 12 67 1.5t78 -40.5z" />
    <glyph glyph-name="uni041E" unicode="&#x41e;" horiz-adv-x="1055" 
d="M713 468q27 0 46 -19.5t19 -46.5t-19 -46.5t-46 -19.5q-18 0 -33 9l-67 -96l-2 -118q25 -2 42.5 -21t17.5 -45q0 -27 -19.5 -46t-46.5 -19t-46 19t-19 46q0 7 1 15l-112 35l-110 -34q1 -6 1 -13q0 -27 -19 -46t-46.5 -19t-46.5 19t-19 46q0 26 17 44.5t42 21.5l-2 115
l-66 94q-16 -10 -34 -10q-27 0 -46.5 19t-19.5 46.5t19.5 46.5t46.5 19q19 0 35 -10t24 -26l111 38l69 92q-21 19 -21 48q0 27 19 46.5t46 19.5t46.5 -19.5t19.5 -46.5q0 -29 -21 -48l69 -92l110 -38q7 18 23.5 29t36.5 11zM429.5 796q99.5 0 190 -38.5t156 -104
t104.5 -156.5t39 -190.5t-39 -190t-104.5 -156t-156 -104t-190 -38.5t-190 38.5t-156 104t-104.5 156t-39 190.5t39 190.5t104.5 156t156 104t190 38.5zM794 307q0 99 -48.5 183t-132.5 133t-183 49t-183 -49t-133 -133t-49 -183t49 -183t133 -132.5t183 -48.5t183 48.5
t132.5 132.5t48.5 183zM794 307q0 -99 -49 -183t-132.5 -132.5t-182.5 -48.5t-183 49t-132.5 132.5t-48.5 182.5t48.5 183t132.5 132.5t183 48.5t182.5 -48.5t132.5 -132.5t49 -183zM795 307q0 99 -49 183t-133 133t-183 49t-183.5 -49t-133 -133t-48.5 -183t48.5 -183
t133 -133t183.5 -49t183 49t133 133t49 183zM919 307q0 -99 -39 -189.5t-104.5 -156t-156 -104.5t-190 -39t-190 39t-156 104.5t-104 156t-38.5 189.5t38.5 189.5t104 156t156 104.5t190 39t190 -39t156 -104t104.5 -156t39 -190zM919 307q0 100 -38.5 190.5t-104 156
t-156.5 104.5t-190.5 39t-190 -39t-156.5 -104.5t-104.5 -156t-38.5 -190.5t38.5 -190.5t104.5 -156t156.5 -104.5t190 -39t190.5 39t156.5 104.5t104 156t38.5 190.5z" />
    <glyph glyph-name="uni041F" unicode="&#x41f;" horiz-adv-x="975" 
d="M712 727l1 -841h-186v649h-341v-629q0 -12 -6 -14q-31 -10 -67 -2q-44 11 -78 41q-16 14 -24.5 42.5t-9.5 49.5l-1 21v684z" />
    <glyph glyph-name="uni0420" unicode="&#x420;" horiz-adv-x="857" 
d="M440 730q6 0 15.5 -1.5t37.5 -8.5t54 -18t57 -33t53.5 -51t38 -74t15.5 -100q0 -45 -9.5 -83.5t-25 -66t-36 -51t-42.5 -38t-44.5 -26t-43 -17.5t-36 -9.5t-25.5 -4.5l-9 -1h-253v-244q1 -10 -6 -13q-23 -13 -67 -2t-79 41q-16 14 -24.5 42.5t-9.5 49.5l-1 22v686h183v1
h257zM436 342q3 0 9 1t20 6.5t25 15t20 29.5t9 46.5t-8.5 46.5t-20.5 29.5t-24.5 15.5t-20.5 7l-9 1h-249v-198h249z" />
    <glyph glyph-name="uni0421" unicode="&#x421;" horiz-adv-x="1013" 
d="M831 420h-203q-31 55 -85.5 87.5t-119.5 32.5q-96 0 -164.5 -68t-68.5 -165t68.5 -165t164.5 -68q62 0 114.5 29.5t84.5 80.5h206q-40 -132 -151.5 -216t-253.5 -84q-115 0 -212.5 56.5t-154 154t-56.5 212.5t56.5 212.5t154 154t212.5 56.5q145 0 258 -87t150 -223z" />
    <glyph glyph-name="uni0422" unicode="&#x422;" horiz-adv-x="866" 
d="M673 695q25 -34 34 -78.5t-1 -67.5q-2 -3 -4.5 -4.5t-4.5 -1.5h-3h-245v-641q1 -10 -6 -13q-23 -11 -67.5 -1t-78.5 38q-16 13 -25 40t-10 47v20v510h-262v187h577q8 0 20 -0.5t38 -9.5t38 -25z" />
    <glyph glyph-name="uni0423" unicode="&#x423;" horiz-adv-x="774" 
d="M227 -116q-175 0 -92 193l85 215l-8 17l-212 421h205l109 -217l109 217h205z" />
    <glyph glyph-name="uni0424" unicode="&#x424;" horiz-adv-x="1131" 
d="M373 147h-148l-9 1q-11 0 -25 4q-16 4 -36.5 10t-43 17.5t-44.5 26t-42.5 38t-36 51t-25 66t-9.5 83.5q0 55 15.5 100t38 74t53.5 51t57 33t54 18t37.5 8.5t15.5 1.5h482q6 0 15.5 -1.5t37.5 -8.5t54 -18t57 -33t53.5 -51t38 -74t15.5 -100q0 -45 -9.5 -83.5t-25 -66
t-36 -51t-42.5 -38t-44.5 -26t-43 -17.5t-36 -10t-25.5 -4l-9 -1h-148v-244q0 -10 -6 -13q-25 -13 -67 -2q-44 11 -79 41q-16 14 -24.5 42.5t-9.5 49.5v22v104zM229 342h144v198h-144l-9 -1q-8 -1 -21 -7q-12 -6 -24 -15.5t-20.5 -29.5t-8.5 -46.5t9 -46.5t20 -29.5t25 -15
t20 -6.5t9 -1zM703 342q3 0 9 1t20 6.5t25 15t20 29.5t9 46.5t-8.5 46.5t-20.5 29.5t-24 15.5q-13 6 -21 7l-9 1h-144v-198h144z" />
    <glyph glyph-name="uni0425" unicode="&#x425;" horiz-adv-x="750" 
d="M630 730l-213 -422l213 -424h-204l-111 220l-111 -220h-204l212 424l-212 422h206l109 -218l109 218h206z" />
    <glyph glyph-name="uni0426" unicode="&#x426;" horiz-adv-x="924" 
d="M618 -47zM618 -47v-2v-20q0 -19 10 -47q10 -27 25 -40q37 -30 79 -38q70 -14 101 1q6 3 6 13l-1 326h-139l1 580h-186v-580h-328v560q0 12 -6 14q-31 10 -67 2q-44 -11 -78 -41q-16 -14 -24.5 -42.5t-9.5 -49.5l-1 -21v-615h618z" />
    <glyph glyph-name="uni0427" unicode="&#x427;" horiz-adv-x="901" 
d="M711 -97q1 -11 -6 -14q-23 -12 -67.5 -1.5t-78.5 40.5q-16 14 -25 43t-10 50v22v171h-365q-9 0 -23.5 1t-45.5 10t-45 26q-43 50 -45 112v368h188v-323h336v323h187v-828z" />
    <glyph glyph-name="uni0428" unicode="&#x428;" horiz-adv-x="1114" 
d="M917 -116h-917v684l1 21q1 21 9.5 49.5t24.5 42.5q34 30 78 41q36 8 67 -2q6 -2 6 -14v-629h195v649h186l-1 -648l169 -1v649h186z" />
    <glyph glyph-name="uni0429" unicode="&#x429;" horiz-adv-x="1136" 
d="M565 143h170v583h186l-1 -583h139l1 -326q0 -10 -6 -13q-30 -15 -102 -1q-42 8 -78 38q-16 13 -25 40q-10 30 -10 47v20v2h-839v618l1 21q1 21 9.5 49.5t24.5 42.5q34 30 78 41q36 8 67 -2q6 -2 6 -14v-563h195v583l185 -1zM839 -50z" />
    <glyph glyph-name="uni042A" unicode="&#x42a;" horiz-adv-x="986" 
d="M-30 536l-1 31v1q2 83 36 113q51 45 113 45h166l-1 -331h250q5 -1 9 -1h15q15 -2 39 -8t61 -20.5t66 -34.5q86 -81 86 -188q0 -49 -15 -90t-39 -67t-53 -46t-58 -30.5t-53 -16.5q-35 -8 -39 -8h-15l-253 -1h-188l-2 652h-124zM533 54q4 0 9.5 1t20 6t25.5 13t20 25.5
t9 41.5t-9.5 42t-24.5 27q-19 11 -25 12q-24 5 -274 5v-173h249z" />
    <glyph glyph-name="uni042B" unicode="&#x42b;" horiz-adv-x="1160" 
d="M764 730h187v-848h-184zM439 -116q6 0 15.5 1.5t37.5 8.5t54 18t57 33t53.5 51t38 74t15.5 100q0 45 -9.5 83.5t-25 66t-36 51t-42.5 38t-44.5 26t-43 17.5t-36.5 10q-9 2 -25 4l-9 1h-253v244q0 10 -6 13q-23 13 -67 2q-45 -11 -79 -41q-16 -14 -25 -43q-9 -28 -9 -49
v-22v-686zM435 272q3 0 9 -1t20 -6.5t25 -15t20 -29.5t9 -46.5t-8.5 -46.5t-20.5 -29.5t-24 -15.5q-13 -6 -21 -7l-9 -1h-249v198h249z" />
    <glyph glyph-name="uni042C" unicode="&#x42c;" horiz-adv-x="883" 
d="M0 567l1 22q1 21 9.5 49.5t24.5 42.5q34 30 78.5 41t67.5 -2l6 -13v-312h250q5 -1 9 -1h15q15 -2 39 -8t61 -20.5t66 -34.5q86 -81 86 -188q0 -49 -15 -90t-39 -67t-53 -46t-58 -30.5t-53 -16.5q-35 -8 -39 -8h-15l-253 -1h-188v683zM437 54q4 0 9.5 1t20 6t25.5 13
t20 25.5t9 41.5t-9.5 42t-23.5 27q-20 11 -26 12q-24 5 -274 5v-173h249z" />
    <glyph glyph-name="uni042D" unicode="&#x42d;" horiz-adv-x="929" 
d="M737 326q0 -242 -126 -366q-47 -46 -160 -70q-17 -4 -39 -5l-15 -1h-435v188l486 1q51 0 75 37q9 14 9 34q0 51 -53 66q-14 4 -20 4h-233v188l192 -1q51 0 75 37q9 14 9 34q0 35 -37 60q-14 10 -38 10h-465v188h435q137 0 226 -78q114 -100 114 -326z" />
    <glyph glyph-name="uni042E" unicode="&#x42e;" horiz-adv-x="1280" 
d="M944 307q0 97 -68.5 166t-166 69t-166 -69t-68.5 -166t68.5 -166t166 -69t166 69t68.5 166zM296 213l-109 -1v-312q0 -11 -6 -14q-23 -12 -67.5 -1.5t-78.5 40.5q-16 14 -25 43q-10 31 -10 50v22v688h187v-322l109 1q10 48 48 113q56 97 153.5 153.5t212.5 56.5
t212 -56.5t154 -154t57 -212.5t-57 -212t-154 -154t-212 -57t-214 58q-107 62 -152 153q-34 67 -48 118z" />
    <glyph glyph-name="uni042F" unicode="&#x42f;" horiz-adv-x="854" 
d="M130 181l-176 -297h223l152 261h172v-245q-2 -10 6 -13q23 -12 67 -1.5t79 40.5q16 14 24.5 42.5t9.5 49.5l1 22v687h-436q-6 0 -16 -1.5t-38.5 -8.5t-54.5 -18t-57.5 -33t-54 -50.5t-38 -74t-15.5 -99.5q0 -183 152 -261zM256 340q-4 0 -9.5 1t-20 6.5t-26 15
t-20.5 29.5t-9 46.5t9 46.5t21 29.5t24.5 15t21.5 6.5l9 1h244v-197h-244z" />
    <glyph glyph-name="uni0430" unicode="&#x430;" horiz-adv-x="966" 
d="M492 150h-304v-247v-2q0 -9 -7 -12q-13 -6 -32 -6q-62 0 -114 45q-34 32 -35 114v1v373l188 105v-176h190l-115 198h-263v187l296 1h1q18 0 35 -4q21 -4 43 -24t33 -38l12 -19l444 -763h-216z" />
    <glyph glyph-name="uni0431" unicode="&#x431;" horiz-adv-x="885" 
d="M187 395h250q5 -1 9 -1h15q15 -2 39 -8t61 -20.5t66 -34.5q86 -81 86 -188q0 -49 -15 -90t-39 -67t-53 -46t-58 -30.5t-53 -16.5q-31 -7 -39 -8h-15l-253 -1h-188v846h520h20q8 0 38 -10q27 -9 38 -25q26 -36 34 -79q9 -47 -1 -67q-2 -4 -5 -5q-3 0 -4 -1h-3h-450v-148z
M437 54q4 0 9.5 1t20 6t25.5 13t20 25.5t9 41.5t-9.5 42t-23.5 27q-20 11 -26 12q-24 5 -274 5v-173h249z" />
    <glyph glyph-name="uni0432" unicode="&#x432;" horiz-adv-x="859" 
d="M643 311q70 -65 70 -168q0 -49 -15 -90t-39 -67t-53 -46t-58 -30.5t-53 -16.5t-39 -8l-15 -1h-253h-188v541l188 109v-139h249q4 0 9.5 1t20 6t25.5 13t20 25.5t9 40t-8.5 40t-21 25.5t-25 13t-20.5 6l-9 1h-437v164h441q6 0 16 -1t38 -7.5t53.5 -16t57 -28.5t54 -43.5
t38 -64t15.5 -86.5q0 -106 -70 -172zM437 54q4 0 9.5 1t20 6t25.5 13t20 25.5t9 40.5q0 25 -9.5 43t-24 26.5t-25 12t-20.5 5.5h-1h-253v-173h249z" />
    <glyph glyph-name="uni0433" unicode="&#x433;" horiz-adv-x="832" 
d="M616 695q25 -33 34 -79q9 -48 -1 -67q-2 -4 -5 -5q-3 0 -4 -1h-3h-450v-641q0 -10 -6 -13q-23 -11 -67.5 -1t-78.5 38q-16 13 -25 40q-10 30 -10 47v20v510v187h520q10 -1 20 0q8 0 38 -10q26 -8 38 -25z" />
    <glyph glyph-name="uni0434" unicode="&#x434;" horiz-adv-x="876" 
d="M321 730q8 -1 22 -3t54.5 -13t77.5 -27.5t82 -49.5t77.5 -75t55 -108t22.5 -145q0 -110 -40.5 -194t-98 -125.5t-115 -68t-97.5 -31.5l-40 -6h-321v514l190 108v-433h106q4 1 12.5 2.5t31.5 8t44 16t47 28.5t44.5 42.5t31 59.5t12.5 79q0 42 -12.5 77.5t-32 58.5
t-43.5 41.5t-47.5 28t-43.5 16t-32 8.5l-12 1h-296v190h321z" />
    <glyph glyph-name="uni0435" unicode="&#x435;" horiz-adv-x="778" 
d="M588 543h-400v-142h247v-188h-247v-142h400v-187h-433q-27 -2 -60 9.5t-60 35.5q-16 14 -24.5 42.5t-9.5 49.5l-1 22v687h177h11h400v-187z" />
    <glyph glyph-name="uni0436" unicode="&#x436;" horiz-adv-x="1338" 
d="M477 212l-1 -169l1 -22q1 -21 9.5 -49.5t24.5 -42.5q35 -30 79 -41q42 -10 67 2q6 3 6 13l-1 309h78l183 -329h216l-236 424l236 422h-216l-184 -329h-76v330h-187v-330h-76l-184 329h-216l236 -422l-236 -424h216l183 329h78z" />
    <glyph glyph-name="uni0437" unicode="&#x437;" horiz-adv-x="858" 
d="M708 471q0 -99 -55 -163q55 -64 55 -166q0 -51 -15 -93.5t-39 -68.5t-53 -45.5t-58 -29t-53 -15.5q-19 -4 -40 -5l-15 -1h-435v188h431q4 0 9.5 0.5t20 4.5t25.5 11t20 21t9 34t-8 34.5t-21 21.5t-24 10q-14 4 -20 4h-7h-202v1l87 187h111q1 0 9 1q6 0 20.5 4t25.5 11
t20 21t9 34t-8.5 35t-21 21.5t-25 10t-20.5 3.5h-9h-431v188h435q6 0 16 -0.5t38 -5.5t54 -14t57.5 -28.5t54 -45.5t38 -69t15.5 -96z" />
    <glyph glyph-name="uni0438" unicode="&#x438;" horiz-adv-x="793" 
d="M397 -116h187v576v268l-397 -391v372q1 10 -6 13q-23 13 -67.5 2t-78.5 -41q-16 -14 -24.5 -42.5t-9.5 -49.5l-1 -22v-685l397 391v-391z" />
    <glyph glyph-name="uni0439" unicode="&#x439;" horiz-adv-x="793" 
d="M417 916q-61 0 -113 -45q-34 -30 -36 -113v-1v-29h149h39v189zM397 -116h187v576v268l-397 -391v372q0 10 -6 13q-23 13 -67.5 2t-78.5 -41q-16 -14 -24.5 -42.5t-9.5 -49.5l-1 -22v-685l397 391v-391z" />
    <glyph glyph-name="uni043A" unicode="&#x43a;" horiz-adv-x="831" 
d="M664 730l-236 -422l236 -424h-216l-183 329h-78v-310q2 -10 -6 -13q-23 -12 -67 -1.5t-79 40.5q-16 14 -24.5 42.5t-9.5 49.5l-1 22v687h188v-329h76l184 329h216z" />
    <glyph glyph-name="uni043B" unicode="&#x43b;" horiz-adv-x="1014" 
d="M653 -116h210l-436 844l-435 -844h210l220 419z" />
    <glyph glyph-name="uni043C" unicode="&#x43c;" horiz-adv-x="1025" 
d="M414 349l421 409v-874h-186v426l-235 -228l-228 224v-403v-1q0 -10 -6 -12q-13 -6 -32 -6q-61 0 -113 44q-34 32 -35 113v1v716z" />
    <glyph glyph-name="uni043D" unicode="&#x43d;" horiz-adv-x="903" 
d="M678 683q16 -14 25 -42.5t9 -49.5l1 -21v-684h-186v263h-341v-243q2 -11 -6 -14q-23 -12 -67 -1.5t-78 40.5q-16 14 -24.5 42.5t-9.5 49.5l-1 21v684h186v-386h341v367q-1 10 6 13q23 12 67 1.5t78 -40.5z" />
    <glyph glyph-name="uni043E" unicode="&#x43e;" horiz-adv-x="965" 
d="M388 730q115 0 212 -56.5t154 -154t57 -212.5t-57 -212t-154 -154t-212 -57t-212.5 57t-154 154t-56.5 212t56.5 212.5t154 154t212.5 56.5zM622 307q0 97 -68.5 166t-166 69t-166 -69t-68.5 -166t68.5 -166t166 -69t166 69t68.5 166z" />
    <glyph glyph-name="uni043F" unicode="&#x43f;" horiz-adv-x="975" 
d="M712 727l1 -841h-186v649h-341v-629q0 -12 -6 -14q-31 -10 -67 -2q-44 11 -78 41q-16 14 -24.5 42.5t-9.5 49.5l-1 21v684z" />
    <glyph glyph-name="uni0440" unicode="&#x440;" horiz-adv-x="857" 
d="M440 730q6 0 15.5 -1.5t37.5 -8.5t54 -18t57 -33t53.5 -51t38 -74t15.5 -100q0 -45 -9.5 -83.5t-25 -66t-36 -51t-42.5 -38t-44.5 -26t-43 -17.5t-36 -9.5t-25.5 -4.5l-9 -1h-253v-244q1 -10 -6 -13q-23 -13 -67 -2t-79 41q-16 14 -24.5 42.5t-9.5 49.5l-1 22v686h183v1
h257zM436 342q3 0 9 1t20 6.5t25 15t20 29.5t9 46.5t-8.5 46.5t-20.5 29.5t-24.5 15.5t-20.5 7l-9 1h-249v-198h249z" />
    <glyph glyph-name="uni0441" unicode="&#x441;" horiz-adv-x="1013" 
d="M831 420h-203q-31 55 -85.5 87.5t-119.5 32.5q-96 0 -164.5 -68t-68.5 -165t68.5 -165t164.5 -68q62 0 114.5 29.5t84.5 80.5h206q-40 -132 -151.5 -216t-253.5 -84q-115 0 -212.5 56.5t-154 154t-56.5 212.5t56.5 212.5t154 154t212.5 56.5q145 0 258 -87t150 -223z" />
    <glyph glyph-name="uni0442" unicode="&#x442;" horiz-adv-x="866" 
d="M673 695q25 -34 34 -78.5t-1 -67.5q-2 -3 -4.5 -4.5t-4.5 -1.5h-3h-245v-641q1 -10 -6 -13q-23 -11 -67.5 -1t-78.5 38q-16 13 -25 40t-10 47v20v510h-262v187h577q8 0 20 -0.5t38 -9.5t38 -25z" />
    <glyph glyph-name="uni0443" unicode="&#x443;" horiz-adv-x="774" 
d="M227 -116q-175 0 -92 193l85 215l-8 17l-212 421h205l109 -217l109 217h205z" />
    <glyph glyph-name="uni0444" unicode="&#x444;" horiz-adv-x="1131" 
d="M373 147h-148l-9 1q-11 0 -25 4q-16 4 -36.5 10t-43 17.5t-44.5 26t-42.5 38t-36 51t-25 66t-9.5 83.5q0 55 15.5 100t38 74t53.5 51t57 33t54 18t37.5 8.5t15.5 1.5h482q6 0 15.5 -1.5t37.5 -8.5t54 -18t57 -33t53.5 -51t38 -74t15.5 -100q0 -45 -9.5 -83.5t-25 -66
t-36 -51t-42.5 -38t-44.5 -26t-43 -17.5t-36 -10t-25.5 -4l-9 -1h-148v-244q0 -10 -6 -13q-25 -13 -67 -2q-44 11 -79 41q-16 14 -24.5 42.5t-9.5 49.5v22v104zM229 342h144v198h-144l-9 -1q-8 -1 -21 -7q-12 -6 -24 -15.5t-20.5 -29.5t-8.5 -46.5t9 -46.5t20 -29.5t25 -15
t20 -6.5t9 -1zM703 342q3 0 9 1t20 6.5t25 15t20 29.5t9 46.5t-8.5 46.5t-20.5 29.5t-24 15.5q-13 6 -21 7l-9 1h-144v-198h144z" />
    <glyph glyph-name="uni0445" unicode="&#x445;" horiz-adv-x="750" 
d="M630 730l-213 -422l213 -424h-204l-111 220l-111 -220h-204l212 424l-212 422h206l109 -218l109 218h206z" />
    <glyph glyph-name="uni0446" unicode="&#x446;" horiz-adv-x="924" 
d="M618 -47zM618 -47v-2v-20q0 -19 10 -47q10 -27 25 -40q37 -30 79 -38q70 -14 101 1q6 3 6 13l-1 326h-139l1 580h-186v-580h-328v560q0 12 -6 14q-31 10 -67 2q-44 -11 -78 -41q-16 -14 -24.5 -42.5t-9.5 -49.5l-1 -21v-615h618z" />
    <glyph glyph-name="uni0447" unicode="&#x447;" horiz-adv-x="901" 
d="M711 -97q1 -11 -6 -14q-23 -12 -67.5 -1.5t-78.5 40.5q-16 14 -25 43t-10 50v22v171h-365q-9 0 -23.5 1t-45.5 10t-45 26q-43 50 -45 112v368h188v-323h336v323h187v-828z" />
    <glyph glyph-name="uni0448" unicode="&#x448;" horiz-adv-x="1114" 
d="M917 -116h-917v684l1 21q1 21 9.5 49.5t24.5 42.5q34 30 78 41q36 8 67 -2q6 -2 6 -14v-629h195v649h186l-1 -648l169 -1v649h186z" />
    <glyph glyph-name="uni0449" unicode="&#x449;" horiz-adv-x="1136" 
d="M565 143h170v583h186l-1 -583h139l1 -326q0 -10 -6 -13q-30 -15 -102 -1q-42 8 -78 38q-16 13 -25 40q-10 30 -10 47v20v2h-839v618l1 21q1 21 9.5 49.5t24.5 42.5q34 30 78 41q36 8 67 -2q6 -2 6 -14v-563h195v583l185 -1zM839 -50z" />
    <glyph glyph-name="uni044A" unicode="&#x44a;" horiz-adv-x="986" 
d="M-30 536l-1 31v1q2 83 36 113q51 45 113 45h166l-1 -331h250q5 -1 9 -1h15q15 -2 39 -8t61 -20.5t66 -34.5q86 -81 86 -188q0 -49 -15 -90t-39 -67t-53 -46t-58 -30.5t-53 -16.5q-35 -8 -39 -8h-15l-253 -1h-188l-2 652h-124zM533 54q4 0 9.5 1t20 6t25.5 13t20 25.5
t9 41.5t-9.5 42t-24.5 27q-19 11 -25 12q-24 5 -274 5v-173h249z" />
    <glyph glyph-name="uni044B" unicode="&#x44b;" horiz-adv-x="1160" 
d="M764 730h187v-848h-184zM439 -116q6 0 15.5 1.5t37.5 8.5t54 18t57 33t53.5 51t38 74t15.5 100q0 45 -9.5 83.5t-25 66t-36 51t-42.5 38t-44.5 26t-43 17.5t-36.5 10q-9 2 -25 4l-9 1h-253v244q0 10 -6 13q-23 13 -67 2q-45 -11 -79 -41q-16 -14 -25 -43q-9 -28 -9 -49
v-22v-686zM435 272q3 0 9 -1t20 -6.5t25 -15t20 -29.5t9 -46.5t-8.5 -46.5t-20.5 -29.5t-24 -15.5q-13 -6 -21 -7l-9 -1h-249v198h249z" />
    <glyph glyph-name="uni044C" unicode="&#x44c;" horiz-adv-x="883" 
d="M0 567l1 22q1 21 9.5 49.5t24.5 42.5q34 30 78.5 41t67.5 -2l6 -13v-312h250q5 -1 9 -1h15q15 -2 39 -8t61 -20.5t66 -34.5q86 -81 86 -188q0 -49 -15 -90t-39 -67t-53 -46t-58 -30.5t-53 -16.5q-35 -8 -39 -8h-15l-253 -1h-188v683zM437 54q4 0 9.5 1t20 6t25.5 13
t20 25.5t9 41.5t-9.5 42t-23.5 27q-20 11 -26 12q-24 5 -274 5v-173h249z" />
    <glyph glyph-name="uni044D" unicode="&#x44d;" horiz-adv-x="929" 
d="M737 326q0 -242 -126 -366q-47 -46 -160 -70q-17 -4 -39 -5l-15 -1h-435v188l486 1q51 0 75 37q9 14 9 34q0 51 -53 66q-14 4 -20 4h-233v188l192 -1q51 0 75 37q9 14 9 34q0 35 -37 60q-14 10 -38 10h-465v188h435q137 0 226 -78q114 -100 114 -326z" />
    <glyph glyph-name="uni044E" unicode="&#x44e;" horiz-adv-x="1280" 
d="M944 307q0 97 -68.5 166t-166 69t-166 -69t-68.5 -166t68.5 -166t166 -69t166 69t68.5 166zM296 213l-109 -1v-312q0 -11 -6 -14q-23 -12 -67.5 -1.5t-78.5 40.5q-16 14 -25 43q-10 31 -10 50v22v688h187v-322l109 1q10 48 48 113q56 97 153.5 153.5t212.5 56.5
t212 -56.5t154 -154t57 -212.5t-57 -212t-154 -154t-212 -57t-214 58q-107 62 -152 153q-34 67 -48 118z" />
    <glyph glyph-name="uni044F" unicode="&#x44f;" horiz-adv-x="854" 
d="M130 181l-176 -297h223l152 261h172v-245q-2 -10 6 -13q23 -12 67 -1.5t79 40.5q16 14 24.5 42.5t9.5 49.5l1 22v687h-436q-6 0 -16 -1.5t-38.5 -8.5t-54.5 -18t-57.5 -33t-54 -50.5t-38 -74t-15.5 -99.5q0 -183 152 -261zM256 340q-4 0 -9.5 1t-20 6.5t-26 15
t-20.5 29.5t-9 46.5t9 46.5t21 29.5t24.5 15t21.5 6.5l9 1h244v-197h-244z" />
    <glyph glyph-name="uni0451" unicode="&#x451;" horiz-adv-x="778" 
d="M472 916q-61 0 -113 -45q-34 -30 -36 -113v-1v-29h149h39v189zM247 916q-61 0 -113 -45q-34 -30 -36 -113v-1v-29h149h39v189zM588 498h-400v-120h247v-188h-247v-119h400v-187h-433q-33 0 -60 10q-33 11 -60 35q-16 14 -24.5 42.5t-9.5 49.5l-1 22v642h588v-187z" />
  </font>
</defs>
</svg>
